<svg xmlns="http://www.w3.org/2000/svg" width="1200" height="630" viewBox="0 0 1200 630" role="img" aria-labelledby="title desc">
  <title id="title">Club Pádel 04</title>
  <desc id="desc">Imagen social abstracta para reservas y gestión SaaS de pádel.</desc>
  <defs>
    <linearGradient id="bg" x1="0" x2="1" y1="0" y2="1">
      <stop offset="0" stop-color="#05080d"/>
      <stop offset="0.54" stop-color="#0b1526"/>
      <stop offset="1" stop-color="#05080d"/>
    </linearGradient>
    <radialGradient id="glow" cx="0.78" cy="0.18" r="0.55">
      <stop offset="0" stop-color="#b6ff00" stop-opacity="0.46"/>
      <stop offset="1" stop-color="#b6ff00" stop-opacity="0"/>
    </radialGradient>
  </defs>
  <rect width="1200" height="630" fill="url(#bg)"/>
  <rect width="1200" height="630" fill="url(#glow)"/>
  <g opacity="0.16" stroke="#ffffff" stroke-width="1">
    <path d="M0 110h1200M0 220h1200M0 330h1200M0 440h1200M0 550h1200"/>
    <path d="M120 0v630M240 0v630M360 0v630M480 0v630M600 0v630M720 0v630M840 0v630M960 0v630M1080 0v630"/>
  </g>
  <rect x="720" y="136" width="330" height="358" rx="34" fill="none" stroke="#b6ff00" stroke-opacity="0.7" stroke-width="6"/>
  <path d="M885 136v358M720 315h330" stroke="#b6ff00" stroke-opacity="0.36" stroke-width="4"/>
  <circle cx="994" cy="208" r="18" fill="#b6ff00"/>
  <text x="96" y="198" fill="#b6ff00" font-family="Arial, sans-serif" font-size="24" font-weight="700" letter-spacing="8">CLUB PÁDEL 04</text>
  <text x="96" y="300" fill="#ffffff" font-family="Arial, sans-serif" font-size="76" font-weight="900">Reservas y gestión</text>
  <text x="96" y="384" fill="#ffffff" font-family="Arial, sans-serif" font-size="76" font-weight="900">SaaS para pádel</text>
  <text x="96" y="462" fill="#9aa8bd" font-family="Arial, sans-serif" font-size="31">Paneles para jugador, staff, administración y soporte.</text>
</svg>
